# Blender v2.79 (sub 0) OBJ File: ''
# www.blender.org
mtllib grid.mtl
o Cube
v 1.555568 0.772193 1.511847
v 1.333345 0.772193 1.511847
v 1.111123 0.772193 1.511847
v 0.888901 0.772193 1.511847
v 0.666679 0.772193 1.511847
v 0.444456 0.772193 1.511847
v 0.222234 0.772193 1.511847
v 0.000012 0.772193 1.511847
v 1.777790 0.772193 1.511847
v 2.000012 0.772193 1.511847
v 0.000012 0.772193 1.289624
v 0.222234 0.772193 1.289624
v 0.444456 0.772193 1.289624
v 0.666679 0.772193 1.289624
v 0.888901 0.772193 1.289624
v 1.111123 0.772193 1.289624
v 1.333345 0.772193 1.289624
v 1.555568 0.772193 1.289624
v 1.777790 0.772193 1.289624
v 2.000012 0.772193 1.289624
v 0.000012 0.772193 1.067402
v 0.222234 0.772193 1.067402
v 0.444456 0.772193 1.067402
v 0.666679 0.772193 1.067402
v 0.888901 0.772193 1.067402
v 1.111123 0.772193 1.067402
v 1.333345 0.772193 1.067402
v 1.555568 0.772193 1.067402
v 1.777790 0.772193 1.067402
v 2.000012 0.772193 1.067402
v 0.000012 0.772193 0.845180
v 0.222234 0.772193 0.845180
v 0.444456 0.772193 0.845180
v 0.666679 0.772193 0.845180
v 0.888901 0.772193 0.845180
v 1.111123 0.772193 0.845180
v 1.333345 0.772193 0.845180
v 1.555568 0.772193 0.845180
v 1.777790 0.772193 0.845180
v 2.000012 0.772193 0.845180
v 0.000012 0.772193 0.622958
v 0.222234 0.772193 0.622958
v 0.444456 0.772193 0.622958
v 0.666679 0.772193 0.622958
v 0.888901 0.772193 0.622958
v 1.111123 0.772193 0.622958
v 1.333345 0.772193 0.622958
v 1.555568 0.772193 0.622958
v 1.777790 0.772193 0.622958
v 2.000012 0.772193 0.622958
v 0.000012 0.772193 0.400735
v 0.222234 0.772193 0.400735
v 0.444456 0.772193 0.400735
v 0.666679 0.772193 0.400735
v 0.888901 0.772193 0.400735
v 1.111123 0.772193 0.400735
v 1.333345 0.772193 0.400735
v 1.555568 0.772193 0.400735
v 1.777790 0.772193 0.400735
v 2.000012 0.772193 0.400735
v 0.000012 0.772193 0.178513
v 0.222234 0.772193 0.178513
v 0.444456 0.772193 0.178513
v 0.666679 0.772193 0.178513
v 0.888901 0.772193 0.178513
v 1.111123 0.772193 0.178513
v 1.333345 0.772193 0.178513
v 1.555568 0.772193 0.178513
v 1.777790 0.772193 0.178513
v 2.000012 0.772193 0.178513
v 0.000012 0.772193 -0.043709
v 0.222234 0.772193 -0.043709
v 0.444456 0.772193 -0.043709
v 0.666679 0.772193 -0.043709
v 0.888901 0.772193 -0.043709
v 1.111123 0.772193 -0.043709
v 1.333345 0.772193 -0.043709
v 1.555568 0.772193 -0.043709
v 1.777790 0.772193 -0.043709
v 2.000012 0.772193 -0.043709
v 0.000012 0.772193 -0.265931
v 0.222234 0.772193 -0.265931
v 0.444456 0.772193 -0.265931
v 0.666679 0.772193 -0.265931
v 0.888901 0.772193 -0.265931
v 1.111123 0.772193 -0.265931
v 1.333345 0.772193 -0.265931
v 1.555568 0.772193 -0.265931
v 1.777790 0.772193 -0.265931
v 2.000012 0.772193 -0.265931
v 0.000012 0.772193 -0.488153
v 0.222234 0.772193 -0.488153
v 0.444456 0.772193 -0.488153
v 0.666679 0.772193 -0.488153
v 0.888901 0.772193 -0.488153
v 1.111123 0.772193 -0.488153
v 1.333345 0.772193 -0.488153
v 1.555568 0.772193 -0.488153
v 1.777790 0.772193 -0.488153
v 2.000012 0.772193 -0.488153
vn 0.0000 1.0000 0.0000
usemtl Material
s off
f 3//1 15//1 4//1
f 7//1 11//1 8//1
f 2//1 16//1 3//1
f 5//1 13//1 6//1
f 6//1 12//1 7//1
f 4//1 14//1 5//1
f 1//1 17//1 2//1
f 9//1 18//1 1//1
f 10//1 19//1 9//1
f 12//1 21//1 11//1
f 13//1 22//1 12//1
f 14//1 23//1 13//1
f 15//1 24//1 14//1
f 16//1 25//1 15//1
f 17//1 26//1 16//1
f 18//1 27//1 17//1
f 19//1 28//1 18//1
f 20//1 29//1 19//1
f 22//1 31//1 21//1
f 23//1 32//1 22//1
f 24//1 33//1 23//1
f 25//1 34//1 24//1
f 26//1 35//1 25//1
f 27//1 36//1 26//1
f 28//1 37//1 27//1
f 29//1 38//1 28//1
f 30//1 39//1 29//1
f 32//1 41//1 31//1
f 33//1 42//1 32//1
f 34//1 43//1 33//1
f 35//1 44//1 34//1
f 36//1 45//1 35//1
f 37//1 46//1 36//1
f 38//1 47//1 37//1
f 39//1 48//1 38//1
f 40//1 49//1 39//1
f 42//1 51//1 41//1
f 43//1 52//1 42//1
f 44//1 53//1 43//1
f 45//1 54//1 44//1
f 46//1 55//1 45//1
f 47//1 56//1 46//1
f 48//1 57//1 47//1
f 49//1 58//1 48//1
f 50//1 59//1 49//1
f 52//1 61//1 51//1
f 53//1 62//1 52//1
f 54//1 63//1 53//1
f 55//1 64//1 54//1
f 56//1 65//1 55//1
f 57//1 66//1 56//1
f 58//1 67//1 57//1
f 59//1 68//1 58//1
f 60//1 69//1 59//1
f 62//1 71//1 61//1
f 63//1 72//1 62//1
f 64//1 73//1 63//1
f 65//1 74//1 64//1
f 66//1 75//1 65//1
f 67//1 76//1 66//1
f 68//1 77//1 67//1
f 69//1 78//1 68//1
f 70//1 79//1 69//1
f 72//1 81//1 71//1
f 73//1 82//1 72//1
f 74//1 83//1 73//1
f 75//1 84//1 74//1
f 76//1 85//1 75//1
f 77//1 86//1 76//1
f 78//1 87//1 77//1
f 79//1 88//1 78//1
f 80//1 89//1 79//1
f 82//1 91//1 81//1
f 83//1 92//1 82//1
f 84//1 93//1 83//1
f 85//1 94//1 84//1
f 86//1 95//1 85//1
f 87//1 96//1 86//1
f 88//1 97//1 87//1
f 89//1 98//1 88//1
f 90//1 99//1 89//1
f 3//1 16//1 15//1
f 7//1 12//1 11//1
f 2//1 17//1 16//1
f 5//1 14//1 13//1
f 6//1 13//1 12//1
f 4//1 15//1 14//1
f 1//1 18//1 17//1
f 9//1 19//1 18//1
f 10//1 20//1 19//1
f 12//1 22//1 21//1
f 13//1 23//1 22//1
f 14//1 24//1 23//1
f 15//1 25//1 24//1
f 16//1 26//1 25//1
f 17//1 27//1 26//1
f 18//1 28//1 27//1
f 19//1 29//1 28//1
f 20//1 30//1 29//1
f 22//1 32//1 31//1
f 23//1 33//1 32//1
f 24//1 34//1 33//1
f 25//1 35//1 34//1
f 26//1 36//1 35//1
f 27//1 37//1 36//1
f 28//1 38//1 37//1
f 29//1 39//1 38//1
f 30//1 40//1 39//1
f 32//1 42//1 41//1
f 33//1 43//1 42//1
f 34//1 44//1 43//1
f 35//1 45//1 44//1
f 36//1 46//1 45//1
f 37//1 47//1 46//1
f 38//1 48//1 47//1
f 39//1 49//1 48//1
f 40//1 50//1 49//1
f 42//1 52//1 51//1
f 43//1 53//1 52//1
f 44//1 54//1 53//1
f 45//1 55//1 54//1
f 46//1 56//1 55//1
f 47//1 57//1 56//1
f 48//1 58//1 57//1
f 49//1 59//1 58//1
f 50//1 60//1 59//1
f 52//1 62//1 61//1
f 53//1 63//1 62//1
f 54//1 64//1 63//1
f 55//1 65//1 64//1
f 56//1 66//1 65//1
f 57//1 67//1 66//1
f 58//1 68//1 67//1
f 59//1 69//1 68//1
f 60//1 70//1 69//1
f 62//1 72//1 71//1
f 63//1 73//1 72//1
f 64//1 74//1 73//1
f 65//1 75//1 74//1
f 66//1 76//1 75//1
f 67//1 77//1 76//1
f 68//1 78//1 77//1
f 69//1 79//1 78//1
f 70//1 80//1 79//1
f 72//1 82//1 81//1
f 73//1 83//1 82//1
f 74//1 84//1 83//1
f 75//1 85//1 84//1
f 76//1 86//1 85//1
f 77//1 87//1 86//1
f 78//1 88//1 87//1
f 79//1 89//1 88//1
f 80//1 90//1 89//1
f 82//1 92//1 91//1
f 83//1 93//1 92//1
f 84//1 94//1 93//1
f 85//1 95//1 94//1
f 86//1 96//1 95//1
f 87//1 97//1 96//1
f 88//1 98//1 97//1
f 89//1 99//1 98//1
f 90//1 100//1 99//1
