# Blender v2.79 (sub 0) OBJ File: ''
# www.blender.org
o Cube
v 1.000000 -1.000000 -1.000000
v 1.000000 -1.000000 1.000000
v -1.000000 -1.000000 1.000000
v -1.000000 -1.000000 -1.000000
v 1.000000 1.000000 -0.999999
v 0.999999 1.000000 1.000001
v -1.000000 1.000000 1.000000
v -1.000000 1.000000 -1.000000

vt 0.000000 0.000000
vt 0.000000 1.000000
vt 1.000000 0.000000
vt 1.000000 1.000000

vn 0.0000 -1.0000 0.0000
vn 0.0000 1.0000 0.0000
vn 1.0000 -0.0000 0.0000
vn 0.0000 -0.0000 1.0000
vn -1.0000 -0.0000 -0.0000
vn 0.0000 0.0000 -1.0000
s off
f 2/1/1 4/2/1 1/3/1
f 8/3/2 6/4/2 5/1/2
f 5/1/3 2/2/3 1/3/3
f 6/3/4 3/4/4 2/1/4
f 3/1/5 8/2/5 4/3/5
f 1/3/6 8/4/6 5/1/6
f 2/1/1 3/2/1 4/3/1
f 8/3/2 7/4/2 6/1/2
f 5/1/3 6/2/3 2/3/3
f 6/3/4 7/4/4 3/1/4
f 3/1/5 7/2/5 8/3/5
f 1/1/6 4/4/6 8/1/6
