# Blender v2.93.5 OBJ File: 'bbox.blend'
# www.blender.org
mtllib bbox.mtl
o Cube
v 1.000000 1.000000 1.000000
v 1.000000 0.000000 1.000000
v 0.000000 1.000000 1.000000
v 0.000000 0.000000 1.000000
v 1.000000 1.000000 0.000000
v 1.000000 0.000000 0.000000
v 0.000000 1.000000 0.000000
v 0.000000 0.000000 0.000000
v 1.000000 0.955020 1.000000
v 1.000000 0.044980 1.000000
v 0.000000 0.044980 0.000000
v 0.000000 0.955020 0.000000
v 0.000000 0.955020 1.000000
v 0.000000 0.044980 1.000000
v 1.000000 0.955020 0.000000
v 1.000000 0.044980 0.000000
v 0.944577 0.000000 0.000000
v 0.055423 0.000000 0.000000
v 0.944577 1.000000 1.000000
v 0.055423 1.000000 1.000000
v 0.055423 1.000000 0.000000
v 0.944577 1.000000 0.000000
v 0.055423 0.000000 1.000000
v 0.944577 0.000000 1.000000
v 0.944577 0.044980 1.000000
v 0.055423 0.044980 1.000000
v 0.944577 0.955020 1.000000
v 0.055423 0.955020 1.000000
v 0.055423 0.044980 0.000000
v 0.944577 0.044980 0.000000
v 0.055423 0.955020 0.000000
v 0.944577 0.955020 0.000000
v 1.000000 0.000000 0.948873
v 1.000000 0.000000 0.051127
v 0.000000 1.000000 0.948873
v 0.000000 1.000000 0.051127
v 0.000000 0.000000 0.051127
v 0.000000 0.000000 0.948873
v 1.000000 1.000000 0.051127
v 1.000000 1.000000 0.948873
v 1.000000 0.044980 0.051127
v 1.000000 0.044980 0.948873
v 1.000000 0.955020 0.051127
v 1.000000 0.955020 0.948873
v 0.000000 0.044980 0.948873
v 0.000000 0.044980 0.051127
v 0.000000 0.955020 0.948873
v 0.000000 0.955020 0.051127
v 0.944577 0.000000 0.948873
v 0.944577 0.000000 0.051127
v 0.055423 0.000000 0.948873
v 0.055423 0.000000 0.051127
v 0.944577 1.000000 0.051127
v 0.944577 1.000000 0.948873
v 0.055423 1.000000 0.051127
v 0.055423 1.000000 0.948873
v 0.952604 0.044980 0.948873
v 0.047396 0.044980 0.948873
v 0.047396 0.955020 0.948873
v 0.952604 0.955020 0.948873
v 0.047396 0.955020 0.051127
v 0.952604 0.955020 0.051127
v 0.047396 0.044980 0.051127
v 0.952604 0.044980 0.051127
vt 0.791667 0.666667
vt 0.875000 0.666667
vt 0.875000 0.750000
vt 0.791667 0.750000
vt 0.541667 0.916667
vt 0.625000 0.916667
vt 0.625000 1.000000
vt 0.541667 1.000000
vt 0.541667 0.166667
vt 0.625000 0.166667
vt 0.625000 0.250000
vt 0.541667 0.250000
vt 0.291667 0.666667
vt 0.375000 0.666667
vt 0.375000 0.750000
vt 0.291667 0.750000
vt 0.541667 0.666667
vt 0.625000 0.666667
vt 0.625000 0.750000
vt 0.541667 0.750000
vt 0.541667 0.416667
vt 0.625000 0.416667
vt 0.625000 0.500000
vt 0.541667 0.500000
vt 0.375000 0.416667
vt 0.458333 0.416667
vt 0.458333 0.500000
vt 0.375000 0.500000
vt 0.458333 0.666667
vt 0.458333 0.750000
vt 0.375000 0.166667
vt 0.458333 0.166667
vt 0.458333 0.250000
vt 0.375000 0.250000
vt 0.375000 0.916667
vt 0.458333 0.916667
vt 0.458333 1.000000
vt 0.375000 1.000000
vt 0.458333 0.000000
vt 0.541667 0.000000
vt 0.541667 0.083333
vt 0.458333 0.083333
vt 0.541667 0.527778
vt 0.541667 0.722222
vt 0.375000 0.000000
vt 0.375000 0.083333
vt 0.541667 0.583333
vt 0.458333 0.583333
vt 0.541667 0.694444
vt 0.541667 0.555556
vt 0.375000 0.583333
vt 0.625000 0.583333
vt 0.291667 0.500000
vt 0.291667 0.583333
vt 0.625000 0.000000
vt 0.625000 0.083333
vt 0.791667 0.500000
vt 0.875000 0.500000
vt 0.875000 0.583333
vt 0.791667 0.583333
vt 0.708333 0.583333
vt 0.708333 0.666667
vt 0.708333 0.500000
vt 0.125000 0.583333
vt 0.208333 0.583333
vt 0.208333 0.666667
vt 0.125000 0.666667
vt 0.458333 0.722222
vt 0.458333 0.694444
vt 0.125000 0.500000
vt 0.208333 0.500000
vt 0.541667 0.833333
vt 0.458333 0.833333
vt 0.541667 0.333333
vt 0.375000 0.833333
vt 0.458333 0.333333
vt 0.458333 0.555556
vt 0.375000 0.333333
vt 0.625000 0.333333
vt 0.208333 0.750000
vt 0.125000 0.750000
vt 0.625000 0.833333
vt 0.708333 0.750000
vt 0.458333 0.527778
vn 0.0000 1.0000 0.0000
vn -1.0000 0.0000 0.0000
vn 0.0000 0.0000 -1.0000
vn 0.0000 -1.0000 0.0000
vn 0.0000 0.0000 1.0000
vn 1.0000 0.0000 0.0000
vn 0.9844 -0.1757 0.0000
vn 0.9844 0.1757 0.0000
vn -0.9879 0.0000 0.1551
vn 0.9879 0.0000 -0.1551
vn -0.9879 0.0000 -0.1551
vn 0.9879 0.0000 0.1551
vn -0.9844 0.1757 0.0000
vn -0.9844 -0.1757 0.0000
usemtl Material
s off
f 55/1/1 21/2/1 7/3/1 36/4/1
f 48/5/2 36/6/2 7/7/2 12/8/2
f 32/9/3 22/10/3 5/11/3 15/12/3
f 51/13/4 23/14/4 4/15/4 38/16/4
f 28/17/5 20/18/5 3/19/5 13/20/5
f 44/21/6 40/22/6 1/23/6 9/24/6
f 33/25/6 42/26/6 10/27/6 2/28/6
f 42/26/6 44/21/6 9/24/6 10/27/6
f 23/14/5 26/29/5 14/30/5 4/15/5
f 26/29/5 28/17/5 13/20/5 14/30/5
f 17/31/3 30/32/3 16/33/3 6/34/3
f 30/32/3 32/9/3 15/12/3 16/33/3
f 37/35/2 46/36/2 11/37/2 8/38/2
f 46/36/2 48/5/2 12/8/2 11/37/2
f 11/39/3 12/40/3 31/41/3 29/42/3
f 62/43/4 61/44/4 31/41/4 32/9/4
f 8/45/3 11/39/3 29/42/3 18/46/3
f 18/46/3 29/42/3 30/32/3 17/31/3
f 10/27/5 9/24/5 27/47/5 25/48/5
f 59/49/4 60/50/4 27/47/4 28/17/4
f 2/28/5 10/27/5 25/48/5 24/51/5
f 24/51/5 25/48/5 26/29/5 23/14/5
f 9/24/5 1/23/5 19/52/5 27/47/5
f 27/47/5 19/52/5 20/18/5 28/17/5
f 33/53/4 2/28/4 24/51/4 49/54/4
f 49/54/4 24/51/4 23/14/4 51/13/4
f 12/40/3 7/55/3 21/56/3 31/41/3
f 31/41/3 21/56/3 22/10/3 32/9/3
f 39/57/1 5/58/1 22/59/1 53/60/1
f 53/60/1 22/59/1 21/2/1 55/1/1
f 19/52/1 54/61/1 56/62/1 20/18/1
f 59/49/7 61/44/7 55/1/7 56/62/7
f 1/23/1 40/63/1 54/61/1 19/52/1
f 40/63/1 39/57/1 53/60/1 54/61/1
f 17/64/4 50/65/4 52/66/4 18/67/4
f 63/68/8 58/69/8 51/13/8 52/66/8
f 6/70/4 34/71/4 50/65/4 17/64/4
f 34/71/4 33/53/4 49/54/4 50/65/4
f 14/30/2 13/20/2 47/72/2 45/73/2
f 60/50/4 62/43/4 43/74/4 44/21/4
f 4/15/2 14/30/2 45/73/2 38/75/2
f 38/75/2 45/73/2 46/36/2 37/35/2
f 16/33/6 15/12/6 43/74/6 41/76/6
f 57/77/3 60/50/3 44/21/3 42/26/3
f 6/34/6 16/33/6 41/76/6 34/78/6
f 34/78/6 41/76/6 42/26/6 33/25/6
f 15/12/6 5/11/6 39/79/6 43/74/6
f 43/74/6 39/79/6 40/22/6 44/21/6
f 18/67/4 52/66/4 37/80/4 8/81/4
f 52/66/4 51/13/4 38/16/4 37/80/4
f 13/20/2 3/19/2 35/82/2 47/72/2
f 47/72/2 35/82/2 36/6/2 48/5/2
f 20/18/1 56/62/1 35/83/1 3/19/1
f 56/62/1 55/1/1 36/4/1 35/83/1
f 62/43/5 64/84/5 41/76/5 43/74/5
f 64/84/1 57/77/1 42/26/1 41/76/1
f 46/36/1 45/73/1 58/69/1 63/68/1
f 64/84/5 63/68/5 52/66/5 50/65/5
f 48/5/5 46/36/5 63/68/5 61/44/5
f 64/84/9 62/43/9 32/9/9 30/32/9
f 45/73/3 47/72/3 59/49/3 58/69/3
f 58/69/10 59/49/10 28/17/10 26/29/10
f 47/72/4 48/5/4 61/44/4 59/49/4
f 60/50/3 59/49/3 56/62/3 54/61/3
f 60/50/11 57/77/11 25/48/11 27/47/11
f 57/77/1 58/69/1 26/29/1 25/48/1
f 61/44/12 63/68/12 29/42/12 31/41/12
f 63/68/1 64/84/1 30/32/1 29/42/1
f 58/69/3 57/77/3 49/54/3 51/13/3
f 57/77/13 64/84/13 50/65/13 49/54/13
f 61/44/5 62/43/5 53/60/5 55/1/5
f 62/43/14 60/50/14 54/61/14 53/60/14
