# Blender v2.93.5 OBJ File: 'grass2.blend'
# www.blender.org
mtllib Grass_Block.mtl
o Grass_Block_Cube
v 1.000000 0.000000 1.000000
v -0.000000 0.000000 0.000000
v -0.000000 0.000000 1.000000
v -0.000000 1.000000 1.000000
v 1.000000 1.000000 0.000000
v 1.000000 1.000000 1.000000
v 1.000000 0.000000 0.000000
v -0.000000 1.000000 0.000000
vt 0.333343 0.250023
vt 0.666657 0.250023
vt 0.666657 0.000038
vt 0.666657 0.500009
vt 0.333343 0.500009
vt 0.333343 0.749994
vt 0.000029 0.500009
vt 0.000029 0.749994
vt 0.333343 0.999980
vt 0.666657 0.999980
vt 0.999971 0.500009
vt 0.666657 0.749994
vt 0.333343 0.000038
vt 0.999971 0.749994
vn 0.0000 -1.0000 0.0000
vn 0.0000 1.0000 0.0000
vn 0.0000 0.0000 1.0000
vn 1.0000 0.0000 0.0000
vn 0.0000 0.0000 -1.0000
vn -1.0000 -0.0000 0.0000
usemtl Grass_Block_TEX
s off
f 1/1/1 3/2/1 2/3/1
f 4/4/2 6/5/2 5/6/2
f 4/4/3 3/2/3 1/1/3
f 6/5/4 1/7/4 7/8/4
f 5/6/5 7/9/5 2/10/5
f 3/11/6 4/4/6 8/12/6
f 1/1/1 2/3/1 7/13/1
f 4/4/2 5/6/2 8/12/2
f 4/4/3 1/1/3 6/5/3
f 6/5/4 7/8/4 5/6/4
f 5/6/5 2/10/5 8/12/5
f 3/11/6 8/12/6 2/14/6
